<svg 
 xmlns="http://www.w3.org/2000/svg"
 xmlns:xlink="http://www.w3.org/1999/xlink"
 width="54px" height="54px">
<path fill-rule="evenodd"  fill="rgb(255, 221, 108)"
 d="M53.000,28.000 L46.1000,28.000 C46.448,28.000 46.000,27.552 46.000,26.1000 C46.000,26.448 46.448,25.1000 46.1000,25.1000 L53.000,25.1000 C53.552,25.1000 54.000,26.448 54.000,26.1000 C54.000,27.552 53.552,28.000 53.000,28.000 ZM41.736,13.677 C41.345,14.067 40.712,14.067 40.322,13.677 C39.931,13.286 39.931,12.653 40.322,12.263 L44.326,8.289 C44.716,7.899 45.350,7.899 45.740,8.289 C46.131,8.680 46.131,9.313 45.740,9.704 L41.736,13.677 ZM26.1000,42.000 C18.716,42.000 12.000,35.284 12.000,26.1000 C12.000,18.716 18.716,11.1000 26.1000,11.1000 C35.284,11.1000 41.1000,18.716 41.1000,26.1000 C41.1000,35.284 35.284,42.000 26.1000,42.000 ZM26.1000,14.000 C19.820,14.000 13.1000,19.820 13.1000,26.1000 C13.1000,34.180 19.820,39.1000 26.1000,39.1000 C34.180,39.1000 40.000,34.180 40.000,26.1000 C40.000,19.820 34.180,14.000 26.1000,14.000 ZM26.1000,8.000 C26.448,8.000 25.1000,7.552 25.1000,7.000 L25.1000,1.000 C25.1000,0.448 26.448,0.000 26.1000,0.000 C27.552,0.000 28.000,0.448 28.000,1.000 L28.000,7.000 C28.000,7.552 27.552,8.000 26.1000,8.000 ZM12.264,13.677 L8.260,9.704 C7.869,9.313 7.869,8.680 8.260,8.289 C8.650,7.899 9.283,7.899 9.674,8.289 L13.678,12.263 C14.069,12.653 14.069,13.286 13.678,13.677 C13.288,14.067 12.655,14.067 12.264,13.677 ZM7.000,28.000 L0.1000,28.000 C0.448,28.000 0.000,27.552 0.000,26.1000 C0.000,26.448 0.448,25.1000 0.1000,25.1000 L7.000,25.1000 C7.552,25.1000 8.000,26.448 8.000,26.1000 C8.000,27.552 7.552,28.000 7.000,28.000 ZM12.264,40.320 C12.655,39.930 13.288,39.930 13.678,40.320 C14.069,40.711 14.069,41.344 13.678,41.734 L9.674,45.708 C9.283,46.098 8.650,46.098 8.260,45.708 C7.869,45.317 7.869,44.684 8.260,44.293 L12.264,40.320 ZM26.1000,45.1000 C27.552,45.1000 28.000,46.448 28.000,46.1000 L28.000,52.1000 C28.000,53.552 27.552,53.1000 26.1000,53.1000 C26.448,53.1000 25.1000,53.552 25.1000,52.1000 L25.1000,46.1000 C25.1000,46.448 26.448,45.1000 26.1000,45.1000 ZM41.736,40.320 L45.740,44.293 C46.131,44.684 46.131,45.317 45.740,45.708 C45.350,46.098 44.716,46.098 44.326,45.708 L40.322,41.734 C39.931,41.344 39.931,40.711 40.322,40.320 C40.712,39.930 41.345,39.930 41.736,40.320 Z"/>
</svg>