<svg 
 xmlns="http://www.w3.org/2000/svg"
 xmlns:xlink="http://www.w3.org/1999/xlink"
 width="54px" height="36px">
<path fill-rule="evenodd"  fill="rgb(159, 159, 159)"
 d="M41.000,35.1000 C41.000,35.1000 40.1000,35.1000 40.1000,35.1000 L40.1000,35.999 L10.000,35.999 L10.000,35.1000 C4.477,35.1000 0.000,31.523 0.000,26.000 C0.000,20.477 4.477,15.1000 10.000,15.1000 C10.009,15.1000 10.017,16.001 10.025,16.001 C10.291,7.121 17.556,-0.000 26.500,-0.000 C33.318,-0.000 39.167,4.136 41.683,10.034 C48.543,10.392 53.1000,16.051 53.1000,22.1000 C53.1000,30.180 48.180,35.1000 41.000,35.1000 ZM41.000,12.000 C40.761,12.000 40.527,12.021 40.292,12.036 C38.409,6.214 32.949,1.1000 26.500,1.1000 C18.492,1.1000 12.000,8.492 12.000,16.500 C12.000,17.109 12.050,17.705 12.122,18.294 C11.445,18.108 10.736,18.000 10.000,18.000 C5.582,18.000 2.000,21.582 2.000,26.000 C2.000,30.418 5.582,34.000 10.000,34.000 L10.000,33.999 L40.1000,33.999 L40.1000,33.1000 C40.1000,33.1000 41.000,34.000 41.000,34.000 C47.075,34.000 51.1000,29.075 51.1000,22.1000 C51.1000,16.925 47.075,12.000 41.000,12.000 Z"/>
<path fill-rule="evenodd"  fill="rgb(159, 159, 159)"
 d="M31.002,18.499 L30.961,18.479 C30.704,18.942 30.132,19.133 29.651,18.896 C29.156,18.651 28.953,18.051 29.197,17.556 C29.210,17.529 29.235,17.513 29.250,17.487 C31.326,13.069 35.796,10.000 41.000,10.000 L41.000,12.000 C36.536,12.000 32.725,14.678 31.002,18.499 Z"/>
</svg>