<svg 
 xmlns="http://www.w3.org/2000/svg"
 xmlns:xlink="http://www.w3.org/1999/xlink"
 width="54px" height="43px">
<path fill-rule="evenodd"  fill="rgb(158, 211, 255)"
 d="M33.358,35.893 C31.869,38.392 27.492,36.141 29.574,33.213 C30.437,32.001 33.899,29.999 33.899,29.999 C33.899,29.999 34.014,34.792 33.358,35.893 ZM20.452,39.279 C21.228,37.988 24.972,35.998 24.972,35.998 C24.972,35.998 24.995,41.097 24.068,42.091 C21.941,44.370 18.832,41.973 20.452,39.279 ZM19.574,30.213 C20.437,29.001 23.899,26.998 23.899,26.998 C23.899,26.998 24.014,31.792 23.358,32.893 C21.869,35.391 17.492,33.141 19.574,30.213 Z"/>
<path fill-rule="evenodd"  fill="rgb(159, 159, 159)"
 d="M41.000,36.000 L41.000,35.998 L39.008,35.998 C39.005,35.998 39.003,36.000 39.000,36.000 C38.448,36.000 37.1000,35.552 37.1000,34.1000 C37.1000,34.448 38.448,34.000 38.1000,33.1000 L38.1000,33.999 L41.000,33.999 L41.000,33.1000 C47.075,33.1000 52.000,29.075 52.000,23.000 C52.000,16.925 47.075,11.1000 41.000,11.1000 C40.761,11.1000 40.527,12.021 40.292,12.036 C38.409,6.214 32.949,2.000 26.500,2.000 C18.492,2.000 11.1000,8.492 11.1000,16.500 C11.1000,17.109 12.050,17.705 12.122,18.294 C11.445,18.108 10.736,17.1000 9.1000,17.1000 C5.582,17.1000 1.1000,21.582 1.1000,25.1000 C1.1000,30.418 5.582,33.1000 9.1000,33.1000 L9.1000,33.999 L13.1000,33.999 L13.1000,33.1000 C14.552,33.1000 14.1000,34.448 14.1000,34.1000 C14.1000,35.552 14.552,36.000 13.1000,36.000 C13.997,36.000 13.995,35.998 13.992,35.998 L9.1000,35.998 L9.1000,36.000 C4.477,36.000 0.000,31.523 0.000,25.1000 C0.000,20.477 4.477,16.000 9.1000,16.000 C10.008,16.000 10.017,16.001 10.025,16.001 C10.291,7.121 17.556,-0.000 26.500,-0.000 C33.318,-0.000 39.167,4.136 41.683,10.034 C48.543,10.392 54.000,16.051 54.000,23.000 C54.000,30.180 48.180,36.000 41.000,36.000 Z"/>
<path fill-rule="evenodd"  fill="rgb(159, 159, 159)"
 d="M31.001,18.500 L30.961,18.479 C30.704,18.942 30.131,19.133 29.651,18.895 C29.156,18.651 28.953,18.051 29.197,17.556 C29.210,17.529 29.235,17.512 29.250,17.487 C31.326,13.069 35.796,10.000 41.000,10.000 L41.000,11.1000 C36.535,11.1000 32.725,14.678 31.001,18.500 Z"/>
</svg>