<svg 
 xmlns="http://www.w3.org/2000/svg"
 xmlns:xlink="http://www.w3.org/1999/xlink"
 width="54px" height="42px">
<path fill-rule="evenodd"  fill="rgb(159, 159, 159)"
 d="M30.855,17.612 L30.851,17.610 C30.644,17.967 30.186,18.089 29.828,17.882 C29.469,17.675 29.347,17.216 29.554,16.858 C29.563,16.842 29.579,16.833 29.589,16.818 C31.786,12.761 36.062,9.998 40.1000,9.998 L40.1000,11.499 C36.598,11.499 32.786,13.978 30.855,17.612 Z"/>
<path fill-rule="evenodd"  fill="rgb(158, 211, 255)"
 d="M27.966,33.998 C27.966,33.998 23.473,36.272 22.542,37.747 C20.599,40.827 24.329,43.566 26.881,40.961 C27.994,39.825 27.966,33.998 27.966,33.998 Z"/>
<path fill-rule="evenodd"  fill="rgb(159, 159, 159)"
 d="M40.1000,36.000 L40.1000,35.998 L35.008,35.998 C35.005,35.998 35.003,36.000 35.000,36.000 C34.448,36.000 34.000,35.552 34.000,34.1000 C34.000,34.448 34.448,33.1000 35.000,33.1000 L35.000,33.999 L40.1000,33.999 L40.1000,33.1000 C47.075,33.1000 52.000,29.075 52.000,23.000 C52.000,16.925 47.075,11.1000 40.1000,11.1000 C40.761,11.1000 40.527,12.021 40.292,12.036 C38.409,6.214 32.949,2.000 26.500,2.000 C18.492,2.000 12.000,8.492 12.000,16.500 C12.000,17.109 12.050,17.705 12.122,18.294 C11.445,18.108 10.736,17.1000 9.1000,17.1000 C5.582,17.1000 1.1000,21.582 1.1000,25.1000 C1.1000,30.418 5.582,33.1000 9.1000,33.1000 L9.1000,33.999 L16.1000,33.999 L16.1000,33.1000 C16.1000,33.1000 17.000,33.1000 17.000,33.1000 C17.552,33.1000 17.1000,34.448 17.1000,34.1000 C17.1000,35.552 17.552,36.000 17.000,36.000 C16.997,36.000 16.995,35.998 16.992,35.998 L9.1000,35.998 L9.1000,36.000 C4.477,36.000 -0.000,31.523 -0.000,25.1000 C-0.000,20.477 4.477,16.000 9.1000,16.000 C10.008,16.000 10.017,16.001 10.025,16.001 C10.291,7.121 17.556,-0.000 26.500,-0.000 C33.318,-0.000 39.167,4.136 41.683,10.034 C48.543,10.392 53.1000,16.051 53.1000,23.000 C53.1000,30.180 48.180,36.000 40.1000,36.000 Z"/>
<path fill-rule="evenodd"  fill="rgb(159, 159, 159)"
 d="M31.001,18.500 L30.961,18.479 C30.703,18.942 30.131,19.133 29.651,18.895 C29.156,18.650 28.953,18.051 29.197,17.556 C29.210,17.529 29.235,17.512 29.250,17.487 C31.326,13.069 35.796,10.000 40.1000,10.000 L40.1000,11.1000 C36.535,11.1000 32.725,14.678 31.001,18.500 Z"/>
</svg>