<svg 
 xmlns="http://www.w3.org/2000/svg"
 xmlns:xlink="http://www.w3.org/1999/xlink"
 width="54px" height="44px">
<path fill-rule="evenodd"  fill="rgb(188, 253, 255)"
 d="M40.500,43.000 C39.672,43.000 38.1000,42.328 38.1000,41.500 C38.1000,40.672 39.672,39.1000 40.500,39.1000 C41.328,39.1000 41.1000,40.672 41.1000,41.500 C41.1000,42.328 41.328,43.000 40.500,43.000 ZM32.897,40.468 C32.621,40.945 32.009,41.110 31.531,40.833 L26.1000,37.821 L26.1000,43.000 C26.1000,43.552 26.552,44.000 25.1000,44.000 C25.448,44.000 25.000,43.552 25.000,43.000 L25.000,37.821 L20.469,40.833 C19.991,41.110 19.379,40.945 19.103,40.468 C18.827,39.989 18.991,39.378 19.469,39.101 L24.197,35.957 L19.500,32.834 C19.022,32.557 18.858,31.946 19.134,31.467 C19.410,30.989 20.022,30.825 20.500,31.101 L25.000,34.093 L25.000,29.000 C25.000,28.448 25.448,28.000 25.1000,28.000 C26.552,28.000 26.1000,28.448 26.1000,29.000 L26.1000,34.093 L31.500,31.101 C31.978,30.825 32.590,30.989 32.866,31.467 C33.142,31.946 32.978,32.557 32.500,32.834 L27.803,35.957 L32.531,39.101 C33.009,39.378 33.173,39.989 32.897,40.468 Z"/>
<path fill-rule="evenodd"  fill="rgb(159, 159, 159)"
 d="M41.000,36.000 C41.000,36.000 40.1000,36.000 40.1000,36.000 L40.1000,35.999 L39.007,35.999 C39.004,35.999 39.002,36.000 38.1000,36.000 C38.448,36.000 38.000,35.552 38.000,35.000 C38.000,34.448 38.448,34.000 38.1000,34.000 L38.1000,33.999 L40.1000,33.999 L40.1000,34.000 C40.1000,34.000 41.000,34.000 41.000,34.000 C47.075,34.000 51.1000,29.075 51.1000,23.000 C51.1000,16.925 47.075,11.1000 41.000,11.1000 C40.761,11.1000 40.527,12.021 40.292,12.036 C38.409,6.214 32.949,2.000 26.500,2.000 C18.492,2.000 12.000,8.492 12.000,16.500 C12.000,17.109 12.050,17.705 12.122,18.294 C11.445,18.108 10.736,17.1000 10.000,17.1000 C5.582,17.1000 2.000,21.582 2.000,25.1000 C2.000,30.418 5.582,34.000 10.000,34.000 L10.000,33.999 L12.1000,33.999 L12.1000,34.000 C12.1000,34.000 13.000,34.000 13.000,34.000 C13.552,34.000 13.1000,34.448 13.1000,35.000 C13.1000,35.552 13.552,36.000 13.000,36.000 C12.998,36.000 12.996,35.999 12.993,35.999 L10.000,35.999 L10.000,36.000 C4.477,36.000 0.000,31.523 0.000,25.1000 C0.000,20.477 4.477,16.000 10.000,16.000 C10.009,16.000 10.017,16.001 10.025,16.001 C10.291,7.121 17.556,0.000 26.500,0.000 C33.318,0.000 39.167,4.136 41.683,10.034 C48.543,10.392 53.1000,16.051 53.1000,23.000 C53.1000,30.180 48.180,36.000 41.000,36.000 Z"/>
<path fill-rule="evenodd"  fill="rgb(159, 159, 159)"
 d="M31.002,18.500 L30.961,18.479 C30.704,18.942 30.131,19.132 29.651,18.895 C29.156,18.651 28.953,18.051 29.197,17.556 C29.210,17.530 29.234,17.514 29.249,17.489 C31.325,13.070 35.795,9.1000 41.000,9.1000 L41.000,11.1000 C36.535,11.1000 32.725,14.678 31.002,18.500 Z"/>
</svg>