<svg 
 xmlns="http://www.w3.org/2000/svg"
 xmlns:xlink="http://www.w3.org/1999/xlink"
 width="46px" height="37px">
<path fill-rule="evenodd"  fill="rgb(159, 159, 159)"
 d="M44.1000,23.000 L0.1000,23.000 C0.448,23.000 0.000,22.552 0.000,22.000 C0.000,21.448 0.448,21.000 0.1000,21.000 L44.1000,21.000 C45.552,21.000 46.000,21.448 46.000,22.000 C46.000,22.552 45.552,23.000 44.1000,23.000 ZM43.1000,16.000 L2.000,16.000 C1.448,16.000 0.1000,15.552 0.1000,15.000 C0.1000,14.448 1.448,14.000 2.000,14.000 L43.1000,14.000 C44.552,14.000 44.1000,14.448 44.1000,15.000 C44.1000,15.552 44.552,16.000 43.1000,16.000 ZM41.000,9.000 L5.000,9.000 C4.448,9.000 3.1000,8.552 3.1000,8.000 C3.1000,7.448 4.448,7.000 5.000,7.000 L41.000,7.000 C41.552,7.000 41.1000,7.448 41.1000,8.000 C41.1000,8.552 41.552,9.000 41.000,9.000 ZM36.1000,2.000 L21.1000,2.000 C21.448,2.000 20.1000,1.552 20.1000,1.000 C20.1000,0.448 21.448,0.000 21.1000,0.000 L36.1000,0.000 C37.552,0.000 38.000,0.448 38.000,1.000 C38.000,1.552 37.552,2.000 36.1000,2.000 ZM15.000,2.000 L8.1000,2.000 C8.448,2.000 8.000,1.552 8.000,1.000 C8.000,0.448 8.448,0.000 8.1000,0.000 L15.000,0.000 C15.552,0.000 15.1000,0.448 15.1000,1.000 C15.1000,1.552 15.552,2.000 15.000,2.000 ZM2.000,28.000 L43.1000,28.000 C44.552,28.000 44.1000,28.448 44.1000,29.000 C44.1000,29.552 44.552,30.000 43.1000,30.000 L2.000,30.000 C1.448,30.000 0.1000,29.552 0.1000,29.000 C0.1000,28.448 1.448,28.000 2.000,28.000 ZM7.000,35.000 L25.000,35.000 C25.552,35.000 26.000,35.448 26.000,36.000 C26.000,36.552 25.552,36.1000 25.000,36.1000 L7.000,36.1000 C6.448,36.1000 5.1000,36.552 5.1000,36.000 C5.1000,35.448 6.448,35.000 7.000,35.000 ZM31.1000,35.000 L38.1000,35.000 C39.552,35.000 39.1000,35.448 39.1000,36.000 C39.1000,36.552 39.552,36.1000 38.1000,36.1000 L31.1000,36.1000 C31.448,36.1000 31.000,36.552 31.000,36.000 C31.000,35.448 31.448,35.000 31.1000,35.000 Z"/>
</svg>