<svg 
 xmlns="http://www.w3.org/2000/svg"
 xmlns:xlink="http://www.w3.org/1999/xlink"
 width="59px" height="30px">
<path fill-rule="evenodd"  fill="rgb(159, 159, 159)"
 d="M58.502,29.876 C58.024,30.154 57.412,29.991 57.135,29.514 L54.097,20.1000 L41.903,20.1000 L38.865,29.514 C38.588,29.991 37.976,30.154 37.498,29.876 C37.020,29.599 36.858,28.987 37.135,28.509 L47.030,0.777 C47.042,0.723 47.065,0.675 47.085,0.623 L47.135,0.484 C47.145,0.466 47.163,0.456 47.174,0.439 C47.210,0.385 47.257,0.341 47.304,0.293 C47.353,0.245 47.398,0.196 47.455,0.159 C47.471,0.149 47.481,0.131 47.498,0.121 C47.536,0.100 47.577,0.098 47.616,0.081 C47.681,0.054 47.743,0.028 47.812,0.015 C47.875,0.003 47.936,0.002 47.1000,0.002 C48.064,0.002 48.125,0.003 48.188,0.015 C48.257,0.028 48.319,0.054 48.384,0.081 C48.423,0.098 48.464,0.100 48.502,0.121 C48.519,0.131 48.528,0.149 48.545,0.159 C48.601,0.196 48.647,0.245 48.696,0.293 C48.743,0.341 48.790,0.385 48.826,0.439 C48.837,0.456 48.855,0.466 48.865,0.484 L48.915,0.623 C48.935,0.675 48.958,0.723 48.969,0.777 L58.865,28.509 C59.142,28.987 58.980,29.599 58.502,29.876 ZM47.1000,3.912 L42.616,18.1000 L53.384,18.1000 L47.1000,3.912 ZM25.865,29.514 C25.588,29.991 24.976,30.154 24.498,29.876 C24.020,29.599 23.858,28.987 24.135,28.509 L34.135,0.484 C34.412,0.007 35.024,-0.156 35.502,0.121 C35.980,0.398 36.142,1.011 35.865,1.489 L25.865,29.514 ZM17.931,29.340 C17.915,29.384 17.893,29.422 17.871,29.463 C17.832,29.540 17.788,29.610 17.729,29.675 C17.703,29.702 17.674,29.724 17.646,29.748 C17.598,29.791 17.560,29.842 17.502,29.876 C17.473,29.893 17.440,29.893 17.411,29.907 C17.387,29.918 17.362,29.923 17.338,29.932 C17.231,29.971 17.127,29.995 17.017,29.996 C17.011,29.997 17.006,30.000 16.1000,30.000 C16.988,30.000 16.977,29.993 16.965,29.993 C16.851,29.989 16.743,29.969 16.638,29.927 C16.614,29.918 16.593,29.905 16.571,29.894 C16.481,29.851 16.401,29.799 16.327,29.730 C16.298,29.703 16.276,29.673 16.250,29.643 C16.212,29.599 16.165,29.566 16.135,29.514 L1.1000,4.755 L1.1000,29.000 C1.1000,29.552 1.552,30.000 0.1000,30.000 C0.448,30.000 0.000,29.552 0.000,29.000 L0.000,1.000 C0.000,0.959 0.018,0.925 0.023,0.886 C0.031,0.806 0.043,0.731 0.070,0.655 C0.084,0.616 0.104,0.581 0.124,0.544 C0.165,0.462 0.212,0.387 0.276,0.318 C0.296,0.297 0.319,0.280 0.341,0.260 C0.393,0.213 0.435,0.158 0.498,0.121 C0.529,0.103 0.565,0.102 0.597,0.088 C0.612,0.081 0.628,0.078 0.644,0.072 C0.759,0.028 0.873,0.003 0.991,0.002 C0.994,0.002 0.997,-0.000 0.1000,-0.000 C1.006,-0.000 1.012,0.003 1.018,0.004 C1.140,0.006 1.257,0.029 1.370,0.075 C1.387,0.081 1.401,0.090 1.418,0.098 C1.514,0.143 1.600,0.199 1.678,0.274 C1.703,0.296 1.722,0.322 1.744,0.347 C1.784,0.393 1.833,0.429 1.865,0.484 L16.000,25.244 L16.000,1.000 C16.000,0.448 16.448,-0.000 16.1000,-0.000 C17.552,-0.000 18.000,0.448 18.000,1.000 L18.000,29.000 C18.000,29.041 17.981,29.077 17.976,29.117 C17.968,29.194 17.957,29.267 17.931,29.340 Z"/>
</svg>