<svg 
 xmlns="http://www.w3.org/2000/svg"
 xmlns:xlink="http://www.w3.org/1999/xlink"
 width="65px" height="57px">
<path fill-rule="evenodd"  fill="rgb(158, 211, 255)"
 d="M44.358,48.893 C42.869,51.391 38.492,49.141 40.574,46.213 C41.437,45.000 44.899,42.999 44.899,42.999 C44.899,42.999 45.014,47.792 44.358,48.893 ZM31.452,53.279 C32.228,51.988 35.972,49.999 35.972,49.999 C35.972,49.999 35.995,55.097 35.068,56.090 C32.941,58.370 29.832,55.973 31.452,53.279 ZM30.574,43.214 C31.437,42.001 34.899,39.998 34.899,39.998 C34.899,39.998 35.014,44.792 34.358,45.893 C32.869,48.391 28.492,46.141 30.574,43.214 Z"/>
<path fill-rule="evenodd"  fill="rgb(255, 221, 108)"
 d="M35.736,7.677 L33.740,9.674 C33.349,10.064 32.716,10.064 32.325,9.674 C31.935,9.283 31.935,8.650 32.325,8.259 L34.322,6.263 C34.712,5.872 35.345,5.872 35.736,6.263 C36.126,6.653 36.126,7.286 35.736,7.677 ZM28.290,12.726 L28.265,12.754 C26.326,11.044 23.788,9.998 20.1000,9.998 C14.925,9.998 9.1000,14.923 9.1000,20.999 C9.1000,23.718 10.992,26.202 12.626,28.122 L12.607,28.145 C13.014,28.488 13.089,29.089 12.761,29.515 C12.424,29.952 11.796,30.035 11.359,29.697 C11.351,29.691 11.348,29.682 11.340,29.676 L11.340,29.677 C11.329,29.665 11.319,29.652 11.309,29.640 C11.221,29.560 11.144,29.474 11.091,29.375 C9.174,27.111 7.1000,24.199 7.1000,20.1000 C7.1000,13.820 13.820,8.000 20.1000,8.000 C24.213,8.000 27.138,9.182 29.406,11.114 C29.499,11.160 29.591,11.208 29.669,11.285 C30.063,11.671 30.069,12.305 29.683,12.699 C29.302,13.087 28.685,13.095 28.290,12.726 ZM20.1000,4.1000 C20.448,4.1000 20.000,4.552 20.000,4.000 L20.000,1.000 C20.000,0.448 20.448,-0.000 20.1000,-0.000 C21.552,-0.000 22.000,0.448 22.000,1.000 L22.000,4.000 C22.000,4.552 21.552,4.1000 20.1000,4.1000 ZM8.260,9.674 L6.264,7.677 C5.874,7.286 5.874,6.653 6.264,6.263 C6.655,5.872 7.288,5.872 7.678,6.263 L9.675,8.259 C10.065,8.650 10.065,9.283 9.675,9.674 C9.284,10.064 8.651,10.064 8.260,9.674 ZM4.000,22.000 L0.1000,22.000 C0.448,22.000 0.000,21.552 0.000,20.1000 C0.000,20.448 0.448,19.1000 0.1000,19.1000 L4.000,19.1000 C4.552,19.1000 5.000,20.448 5.000,20.1000 C5.000,21.552 4.552,22.000 4.000,22.000 ZM8.260,32.324 C8.651,31.934 9.284,31.934 9.675,32.324 C10.065,32.715 10.065,33.348 9.675,33.738 L7.678,35.735 C7.288,36.125 6.655,36.125 6.264,35.735 C5.874,35.344 5.874,34.710 6.264,34.320 L8.260,32.324 Z"/>
<path fill-rule="evenodd"  fill="rgb(159, 159, 159)"
 d="M51.1000,48.1000 C51.730,48.1000 51.466,48.979 51.202,48.959 C51.134,48.974 51.072,48.1000 51.000,48.1000 C50.448,48.1000 50.000,48.552 50.000,47.1000 C50.000,47.448 50.448,47.000 50.1000,47.000 L50.1000,46.941 C51.330,46.971 51.662,46.1000 51.1000,46.1000 C58.075,46.1000 63.000,42.075 63.000,36.000 C63.000,29.925 58.075,25.000 51.1000,25.000 C51.761,25.000 51.527,25.021 51.292,25.036 C49.409,19.214 43.949,15.000 37.500,15.000 C29.492,15.000 23.000,21.492 23.000,29.500 C23.000,30.109 23.050,30.705 23.122,31.294 C22.445,31.108 21.736,31.000 20.1000,31.000 C16.582,31.000 12.1000,34.582 12.1000,39.000 C12.1000,43.418 16.582,46.1000 20.1000,46.1000 L20.1000,46.999 L23.1000,46.999 L23.1000,46.1000 C24.552,46.1000 25.000,47.448 25.000,47.1000 C25.000,48.552 24.552,48.1000 23.1000,48.1000 C23.998,48.1000 23.996,48.999 23.993,48.999 L20.1000,48.999 L20.1000,48.1000 C15.477,48.1000 10.1000,44.523 10.1000,39.000 C10.1000,33.477 15.477,29.000 20.1000,29.000 C21.008,29.000 21.017,29.001 21.025,29.001 C21.291,20.121 28.556,12.1000 37.500,12.1000 C44.318,12.1000 50.167,17.136 52.683,23.034 C59.543,23.392 64.1000,29.051 64.1000,36.000 C64.1000,43.180 59.180,48.1000 51.1000,48.1000 Z"/>
<path fill-rule="evenodd"  fill="rgb(159, 159, 159)"
 d="M42.002,31.499 L41.961,31.479 C41.704,31.942 41.131,32.132 40.651,31.895 C40.156,31.651 39.953,31.051 40.197,30.556 C40.210,30.529 40.234,30.513 40.250,30.488 C42.325,26.070 46.795,23.000 51.1000,23.000 L51.1000,25.000 C47.535,25.000 43.725,27.677 42.002,31.499 Z"/>
</svg>