<svg 
 xmlns="http://www.w3.org/2000/svg"
 xmlns:xlink="http://www.w3.org/1999/xlink"
 width="65px" height="55px">
<path fill-rule="evenodd"  fill="rgb(159, 159, 159)"
 d="M41.855,30.612 L41.851,30.610 C41.644,30.967 41.186,31.089 40.828,30.883 C40.469,30.675 40.347,30.217 40.554,29.858 C40.563,29.842 40.579,29.833 40.589,29.818 C42.786,25.761 47.062,22.999 51.1000,22.999 L51.1000,24.499 C47.598,24.499 43.786,26.978 41.855,30.612 Z"/>
<path fill-rule="evenodd"  fill="rgb(158, 211, 255)"
 d="M38.966,46.998 C38.966,46.998 34.473,49.272 33.542,50.747 C31.599,53.827 35.329,56.566 37.881,53.961 C38.994,52.825 38.966,46.998 38.966,46.998 Z"/>
<path fill-rule="evenodd"  fill="rgb(159, 159, 159)"
 d="M51.1000,48.1000 L51.1000,48.999 L46.006,48.999 C46.004,48.999 46.002,48.1000 46.000,48.1000 C45.448,48.1000 45.000,48.552 45.000,48.000 C45.000,47.448 45.448,47.000 45.1000,47.000 L45.1000,46.999 L51.1000,46.999 L51.1000,47.000 C58.075,47.000 63.000,42.075 63.000,35.1000 C63.000,29.925 58.075,25.000 51.1000,25.000 C51.761,25.000 51.527,25.021 51.292,25.036 C49.409,19.214 43.949,14.1000 37.500,14.1000 C29.492,14.1000 23.000,21.492 23.000,29.500 C23.000,30.109 23.050,30.705 23.122,31.294 C22.445,31.108 21.736,30.1000 20.1000,30.1000 C16.582,30.1000 12.1000,34.582 12.1000,39.000 C12.1000,43.418 16.582,47.000 20.1000,47.000 L20.1000,46.999 L27.1000,46.999 L27.1000,47.000 C27.1000,47.000 28.000,47.000 28.000,47.000 C28.552,47.000 28.1000,47.448 28.1000,48.000 C28.1000,48.552 28.552,48.1000 28.000,48.1000 C27.998,48.1000 27.996,48.999 27.994,48.999 L20.1000,48.999 L20.1000,48.1000 C15.477,48.1000 10.1000,44.523 10.1000,39.000 C10.1000,33.477 15.477,28.1000 20.1000,28.1000 C21.008,28.1000 21.017,29.001 21.025,29.001 C21.291,20.121 28.556,13.000 37.500,13.000 C44.318,13.000 50.167,17.136 52.683,23.034 C59.543,23.392 64.1000,29.051 64.1000,35.1000 C64.1000,43.180 59.180,48.1000 51.1000,48.1000 Z"/>
<path fill-rule="evenodd"  fill="rgb(159, 159, 159)"
 d="M42.001,31.500 L41.961,31.480 C41.703,31.942 41.131,32.132 40.651,31.895 C40.156,31.651 39.953,31.052 40.197,30.556 C40.210,30.529 40.235,30.513 40.250,30.487 C42.326,26.069 46.796,22.1000 51.1000,22.1000 L51.1000,25.000 C47.535,25.000 43.725,27.678 42.001,31.500 Z"/>
<path fill-rule="evenodd"  fill="rgb(255, 221, 108)"
 d="M35.736,7.677 L33.739,9.673 C33.349,10.064 32.716,10.064 32.325,9.673 C31.935,9.283 31.935,8.650 32.325,8.259 L34.322,6.263 C34.712,5.873 35.345,5.873 35.736,6.263 C36.126,6.654 36.126,7.286 35.736,7.677 ZM28.290,12.727 L28.264,12.754 C26.326,11.044 23.788,9.999 20.1000,9.999 C14.925,9.999 9.1000,14.924 9.1000,20.999 C9.1000,23.718 10.992,26.202 12.626,28.122 L12.607,28.145 C13.014,28.488 13.089,29.089 12.761,29.515 C12.424,29.953 11.796,30.034 11.359,29.697 C11.351,29.691 11.348,29.683 11.341,29.677 L11.340,29.678 C11.328,29.665 11.319,29.651 11.308,29.638 C11.220,29.559 11.143,29.474 11.090,29.375 C9.174,27.111 7.1000,24.199 7.1000,21.000 C7.1000,13.820 13.820,7.1000 20.1000,7.1000 C24.214,7.1000 27.141,9.183 29.409,11.116 C29.501,11.162 29.592,11.210 29.669,11.285 C30.063,11.672 30.069,12.305 29.683,12.699 C29.302,13.087 28.685,13.095 28.290,12.727 ZM20.1000,5.000 C20.448,5.000 20.000,4.552 20.000,4.000 L20.000,0.1000 C20.000,0.448 20.448,0.000 20.1000,0.000 C21.552,0.000 22.000,0.448 22.000,0.1000 L22.000,4.000 C22.000,4.552 21.552,5.000 20.1000,5.000 ZM8.260,9.673 L6.264,7.677 C5.874,7.286 5.874,6.654 6.264,6.263 C6.655,5.873 7.288,5.873 7.678,6.263 L9.675,8.259 C10.065,8.650 10.065,9.283 9.675,9.673 C9.284,10.064 8.651,10.064 8.260,9.673 ZM4.000,21.1000 L0.1000,21.1000 C0.448,21.1000 0.000,21.552 0.000,21.000 C0.000,20.448 0.448,20.000 0.1000,20.000 L4.000,20.000 C4.552,20.000 5.000,20.448 5.000,21.000 C5.000,21.552 4.552,21.1000 4.000,21.1000 ZM8.260,32.324 C8.651,31.934 9.284,31.934 9.675,32.324 C10.065,32.715 10.065,33.348 9.675,33.738 L7.678,35.735 C7.288,36.125 6.655,36.125 6.264,35.735 C5.874,35.344 5.874,34.711 6.264,34.321 L8.260,32.324 Z"/>
</svg>