<svg 
 xmlns="http://www.w3.org/2000/svg"
 xmlns:xlink="http://www.w3.org/1999/xlink"
 width="54px" height="42px">
<path fill-rule="evenodd"  fill="rgb(159, 159, 159)"
 d="M33.500,31.1000 C32.672,31.1000 32.000,31.328 32.000,30.500 C32.000,29.672 32.672,29.000 33.500,29.000 C34.328,29.000 35.000,29.672 35.000,30.500 C35.000,31.328 34.328,31.1000 33.500,31.1000 ZM26.500,37.000 C25.672,37.000 24.1000,36.328 24.1000,35.500 C24.1000,34.672 25.672,34.000 26.500,34.000 C27.328,34.000 27.1000,34.672 27.1000,35.500 C27.1000,36.328 27.328,37.000 26.500,37.000 ZM19.500,42.000 C18.672,42.000 17.1000,41.328 17.1000,40.500 C17.1000,39.672 18.672,38.1000 19.500,38.1000 C20.328,38.1000 20.1000,39.672 20.1000,40.500 C20.1000,41.328 20.328,42.000 19.500,42.000 ZM19.500,31.1000 C18.672,31.1000 17.1000,31.328 17.1000,30.500 C17.1000,29.672 18.672,29.000 19.500,29.000 C20.328,29.000 20.1000,29.672 20.1000,30.500 C20.1000,31.328 20.328,31.1000 19.500,31.1000 ZM33.500,38.1000 C34.328,38.1000 35.000,39.672 35.000,40.500 C35.000,41.328 34.328,42.000 33.500,42.000 C32.672,42.000 32.000,41.328 32.000,40.500 C32.000,39.672 32.672,38.1000 33.500,38.1000 Z"/>
<path fill-rule="evenodd"  fill="rgb(159, 159, 159)"
 d="M40.1000,36.000 C40.448,36.000 40.000,35.552 40.000,35.000 C40.000,34.448 40.448,34.000 40.1000,34.000 C47.075,34.000 52.000,29.075 52.000,23.000 C52.000,16.925 47.075,11.1000 40.1000,11.1000 C40.761,11.1000 40.527,12.021 40.292,12.036 C38.409,6.214 32.949,2.000 26.500,2.000 C18.492,2.000 12.000,8.492 12.000,16.500 C12.000,17.109 12.050,17.705 12.122,18.294 C11.445,18.108 10.736,17.1000 9.1000,17.1000 C5.582,17.1000 1.1000,21.582 1.1000,25.1000 C1.1000,30.418 5.582,34.000 9.1000,34.000 L9.1000,33.999 L11.1000,33.999 L11.1000,34.000 C11.1000,34.000 12.000,34.000 12.000,34.000 C12.552,34.000 12.1000,34.448 12.1000,35.000 C12.1000,35.552 12.552,36.000 12.000,36.000 C11.998,36.000 11.996,35.999 11.993,35.999 L9.1000,35.999 L9.1000,36.000 C4.477,36.000 -0.000,31.523 -0.000,25.1000 C-0.000,20.477 4.477,16.000 9.1000,16.000 C10.008,16.000 10.017,16.001 10.025,16.001 C10.291,7.121 17.556,0.000 26.500,0.000 C33.318,0.000 39.167,4.136 41.683,10.034 C48.543,10.392 53.1000,16.051 53.1000,23.000 C53.1000,30.180 48.180,36.000 40.1000,36.000 Z"/>
<path fill-rule="evenodd"  fill="rgb(159, 159, 159)"
 d="M31.002,18.500 L30.961,18.479 C30.704,18.942 30.131,19.132 29.651,18.895 C29.156,18.651 28.953,18.051 29.197,17.556 C29.210,17.530 29.234,17.514 29.249,17.489 C31.325,13.070 35.795,9.1000 40.1000,9.1000 L40.1000,11.1000 C36.535,11.1000 32.725,14.678 31.002,18.500 Z"/>
</svg>