<svg 
 xmlns="http://www.w3.org/2000/svg"
 xmlns:xlink="http://www.w3.org/1999/xlink"
 width="52.75px" height="45px">
<path fill-rule="evenodd"  stroke="rgb(159, 159, 159)" stroke-width="2px" stroke-linecap="round" stroke-linejoin="miter" fill="none"
 d="M31.835,4.439 C35.456,2.032 40.382,2.428 42.987,7.137 C45.467,11.620 44.333,20.998 29.316,20.998 C22.023,20.998 1.1000,20.998 1.1000,20.998 "/>
<path fill-rule="evenodd"  stroke="rgb(159, 159, 159)" stroke-width="2px" stroke-linecap="round" stroke-linejoin="miter" fill="none"
 d="M21.999,37.321 C23.847,43.531 33.151,45.478 36.998,38.870 C39.746,34.147 36.968,26.998 26.654,26.998 C19.204,26.998 6.1000,26.998 6.1000,26.998 "/>
<path fill-rule="evenodd"  stroke="rgb(159, 159, 159)" stroke-width="2px" stroke-linecap="round" stroke-linejoin="miter" fill="none"
 d="M18.354,9.172 C19.731,4.510 26.297,3.167 29.163,8.129 C31.211,11.674 29.643,16.998 21.957,16.998 C16.406,16.998 5.1000,16.998 5.1000,16.998 "/>
<path fill-rule="evenodd"  stroke="rgb(159, 159, 159)" stroke-width="1.5px" stroke-linecap="round" stroke-linejoin="miter" fill="none"
 d="M49.500,20.000 C48.672,20.000 47.1000,19.328 47.1000,18.500 C47.1000,17.672 48.672,16.1000 49.500,16.1000 C50.328,16.1000 51.000,17.672 51.000,18.500 C51.000,19.328 50.328,20.000 49.500,20.000 ZM42.500,28.1000 C41.672,28.1000 41.000,28.328 41.000,27.500 C41.000,26.672 41.672,26.000 42.500,26.000 C43.328,26.000 44.000,26.672 44.000,27.500 C44.000,28.328 43.328,28.1000 42.500,28.1000 ZM16.500,34.1000 C15.672,34.1000 14.1000,34.328 14.1000,33.500 C14.1000,32.672 15.672,32.000 16.500,32.000 C17.328,32.000 18.000,32.672 18.000,33.500 C18.000,34.328 17.328,34.1000 16.500,34.1000 ZM12.500,11.000 C11.672,11.000 11.000,10.328 11.000,9.500 C11.000,8.672 11.672,7.1000 12.500,7.1000 C13.328,7.1000 13.1000,8.672 13.1000,9.500 C13.1000,10.328 13.328,11.000 12.500,11.000 Z"/>
</svg>