<svg 
 xmlns="http://www.w3.org/2000/svg"
 xmlns:xlink="http://www.w3.org/1999/xlink"
 width="43px" height="46px">
<path fill-rule="evenodd"  fill="rgb(159, 159, 159)"
 d="M41.747,36.498 L42.1000,38.999 L40.494,38.999 L39.492,40.998 L38.495,38.999 L35.1000,38.999 L37.247,36.498 L35.1000,33.998 L38.495,33.998 L39.492,31.998 L40.495,33.998 L42.1000,33.998 L41.747,36.498 ZM34.147,15.498 L33.641,16.499 L33.135,15.498 L31.870,15.498 L32.503,14.249 L31.870,12.999 L33.135,12.999 L33.641,11.999 L34.147,12.999 L35.412,12.999 L34.779,14.249 L35.412,15.498 L34.147,15.498 ZM33.388,22.499 L32.756,23.749 L33.388,24.999 L32.123,24.999 L31.618,25.999 L31.112,24.999 L29.847,24.999 L30.479,23.749 L29.847,22.499 L31.112,22.499 L31.618,21.498 L32.123,22.499 L33.388,22.499 ZM29.436,6.999 L28.582,8.499 L27.729,6.999 L26.306,6.999 L27.017,5.749 L26.306,4.499 L27.728,4.499 L28.582,2.998 L29.436,4.499 L30.859,4.499 L30.147,5.749 L30.859,6.999 L29.436,6.999 ZM27.008,42.001 L28.011,43.998 L26.008,43.998 L25.007,45.999 L24.004,43.998 L22.003,43.998 L23.002,41.998 L21.1000,39.999 L24.001,39.999 L24.1000,37.999 L26.004,39.999 L28.011,39.999 L27.008,42.001 ZM24.788,29.499 L24.282,30.499 L23.776,29.499 L22.765,29.499 L23.270,28.498 L22.765,27.498 L23.776,27.498 L24.282,26.498 L24.788,27.498 L25.800,27.498 L25.294,28.498 L25.800,29.499 L24.788,29.499 ZM21.342,3.998 L20.488,5.499 L19.634,3.998 L18.212,3.998 L18.923,2.749 L18.212,1.499 L19.634,1.499 L20.488,-0.001 L21.342,1.499 L22.765,1.499 L22.053,2.749 L22.765,3.998 L21.342,3.998 ZM17.706,25.999 L18.212,26.998 L17.200,26.998 L16.694,27.999 L16.188,26.998 L15.176,26.998 L15.682,25.999 L15.176,24.999 L16.188,24.999 L16.694,23.999 L17.200,24.999 L18.212,24.999 L17.706,25.999 ZM14.344,14.499 L14.007,14.998 L13.670,14.499 L12.995,14.499 L13.333,13.999 L12.995,13.498 L13.670,13.498 L14.007,12.999 L14.344,13.498 L15.019,13.498 L14.682,13.999 L15.019,14.499 L14.344,14.499 ZM14.165,19.498 L13.659,20.498 L14.165,21.498 L13.153,21.498 L12.900,21.999 L12.647,21.498 L11.635,21.498 L12.141,20.498 L11.635,19.498 L12.647,19.498 L12.900,18.998 L13.153,19.498 L14.165,19.498 ZM10.212,6.498 L9.359,7.998 L8.505,6.498 L7.082,6.498 L7.794,5.248 L7.082,3.998 L8.505,3.998 L9.359,2.499 L10.212,3.998 L11.635,3.998 L10.924,5.248 L11.635,6.498 L10.212,6.498 ZM3.372,27.999 L2.529,29.499 L1.686,27.999 L-0.000,27.999 L0.843,26.499 L-0.000,24.999 L1.686,24.999 L2.529,23.498 L3.373,24.999 L5.059,24.999 L4.216,26.499 L5.059,27.999 L3.372,27.999 ZM3.372,15.498 L2.529,16.998 L1.686,15.498 L-0.000,15.498 L0.843,13.998 L-0.000,12.498 L1.686,12.498 L2.529,10.999 L3.372,12.498 L5.059,12.498 L4.215,13.998 L5.059,15.498 L3.372,15.498 ZM10.118,34.999 L10.876,33.499 L11.635,34.999 L13.659,34.999 L12.647,36.999 L13.659,38.999 L11.635,38.999 L10.876,40.499 L10.118,38.999 L8.094,38.999 L9.106,36.999 L8.094,34.999 L10.118,34.999 Z"/>
</svg>