<svg 
 xmlns="http://www.w3.org/2000/svg"
 xmlns:xlink="http://www.w3.org/1999/xlink"
 width="64px" height="45.75px">
<path fill-rule="evenodd"  stroke="rgb(159, 159, 159)" stroke-width="2px" stroke-linecap="round" stroke-linejoin="miter" fill="none"
 d="M50.1000,14.998 C50.1000,14.998 17.202,14.998 9.700,14.998 C1.007,14.998 0.132,8.294 1.542,5.146 C3.495,0.785 11.102,-1.627 14.289,5.665 "/>
<path fill-rule="evenodd"  stroke="rgb(159, 159, 159)" stroke-width="2px" stroke-linecap="round" stroke-linejoin="miter" fill="none"
 d="M12.1000,21.998 C12.1000,21.998 46.122,21.998 53.474,21.998 C61.992,21.998 62.850,28.703 61.469,31.850 C59.555,36.212 52.100,38.623 48.977,31.332 "/>
<path fill-rule="evenodd"  stroke="rgb(159, 159, 159)" stroke-width="1.5px" stroke-linecap="round" stroke-linejoin="miter" fill="none"
 d="M56.000,5.000 L54.000,5.000 C53.448,5.000 53.000,4.552 53.000,4.000 C53.000,3.448 53.448,3.000 54.000,3.000 L56.000,3.000 C56.552,3.000 56.1000,3.448 56.1000,4.000 C56.1000,4.552 56.552,5.000 56.000,5.000 ZM48.000,5.000 L38.000,5.000 C37.448,5.000 36.1000,4.552 36.1000,4.000 C36.1000,3.448 37.448,3.000 38.000,3.000 L48.000,3.000 C48.552,3.000 49.000,3.448 49.000,4.000 C49.000,4.552 48.552,5.000 48.000,5.000 ZM33.1000,34.000 L23.1000,34.000 C23.448,34.000 23.000,33.552 23.000,33.000 C23.000,32.448 23.448,32.000 23.1000,32.000 L33.1000,32.000 C34.552,32.000 34.1000,32.448 34.1000,33.000 C34.1000,33.552 34.552,34.000 33.1000,34.000 ZM31.1000,5.000 L21.1000,5.000 C21.448,5.000 21.000,4.552 21.000,4.000 C21.000,3.448 21.448,3.000 21.1000,3.000 L31.1000,3.000 C32.552,3.000 33.000,3.448 33.000,4.000 C33.000,4.552 32.552,5.000 31.1000,5.000 ZM18.000,34.000 L8.000,34.000 C7.448,34.000 6.1000,33.552 6.1000,33.000 C6.1000,32.448 7.448,32.000 8.000,32.000 L18.000,32.000 C18.552,32.000 18.1000,32.448 18.1000,33.000 C18.1000,33.552 18.552,34.000 18.000,34.000 ZM39.1000,34.000 C39.448,34.000 38.1000,33.552 38.1000,33.000 C38.1000,32.448 39.448,32.000 39.1000,32.000 L41.1000,32.000 C42.552,32.000 43.000,32.448 43.000,33.000 C43.000,33.552 42.552,34.000 41.1000,34.000 L39.1000,34.000 ZM29.1000,41.1000 L44.000,41.1000 C44.552,41.1000 44.1000,42.448 44.1000,42.1000 C44.1000,43.552 44.552,43.1000 44.000,43.1000 L29.1000,43.1000 C29.448,43.1000 28.1000,43.552 28.1000,42.1000 C28.1000,42.448 29.448,41.1000 29.1000,41.1000 Z"/>
</svg>