<svg 
 xmlns="http://www.w3.org/2000/svg"
 xmlns:xlink="http://www.w3.org/1999/xlink"
 width="54px" height="42px">
<path fill-rule="evenodd"  fill="rgb(158, 211, 255)"
 d="M32.443,37.924 C30.923,40.435 26.451,38.173 28.578,35.231 C29.460,34.011 32.995,31.999 32.995,31.999 C32.995,31.999 33.113,36.817 32.443,37.924 ZM19.455,38.279 C20.236,36.988 24.003,34.998 24.003,34.998 C24.003,34.998 24.026,40.096 23.093,41.091 C20.953,43.370 17.825,40.973 19.455,38.279 Z"/>
<path fill-rule="evenodd"  fill="rgb(159, 159, 159)"
 d="M41.000,36.000 C41.000,36.000 40.1000,36.000 40.1000,36.000 L40.1000,35.998 L39.008,35.998 C39.005,35.998 39.003,36.000 38.1000,36.000 C38.448,36.000 38.000,35.552 38.000,34.1000 C38.000,34.448 38.448,33.1000 38.1000,33.1000 L38.1000,33.999 L40.1000,33.999 L40.1000,33.1000 C40.1000,33.1000 41.000,33.1000 41.000,33.1000 C47.075,33.1000 51.1000,29.075 51.1000,23.000 C51.1000,16.925 47.075,11.1000 41.000,11.1000 C40.761,11.1000 40.527,12.021 40.292,12.036 C38.409,6.214 32.949,2.000 26.500,2.000 C18.492,2.000 12.000,8.492 12.000,16.500 C12.000,17.109 12.050,17.705 12.122,18.294 C11.445,18.108 10.736,17.1000 10.000,17.1000 C5.582,17.1000 2.000,21.582 2.000,25.1000 C2.000,30.418 5.582,33.1000 10.000,33.1000 L10.000,33.999 L12.1000,33.999 L12.1000,33.1000 C12.1000,33.1000 13.000,33.1000 13.000,33.1000 C13.552,33.1000 13.1000,34.448 13.1000,34.1000 C13.1000,35.552 13.552,36.000 13.000,36.000 C12.997,36.000 12.995,35.998 12.992,35.998 L10.000,35.998 L10.000,36.000 C4.477,36.000 0.000,31.523 0.000,25.1000 C0.000,20.477 4.477,16.000 10.000,16.000 C10.009,16.000 10.017,16.001 10.025,16.001 C10.291,7.121 17.556,-0.000 26.500,-0.000 C33.318,-0.000 39.167,4.136 41.683,10.034 C48.543,10.392 53.1000,16.051 53.1000,23.000 C53.1000,30.180 48.180,36.000 41.000,36.000 Z"/>
<path fill-rule="evenodd"  fill="rgb(159, 159, 159)"
 d="M31.001,18.500 L30.961,18.479 C30.704,18.942 30.131,19.133 29.651,18.895 C29.156,18.651 28.953,18.051 29.197,17.556 C29.210,17.529 29.235,17.512 29.250,17.487 C31.326,13.069 35.796,10.000 41.000,10.000 L41.000,11.1000 C36.535,11.1000 32.725,14.678 31.001,18.500 Z"/>
</svg>