<svg 
 xmlns="http://www.w3.org/2000/svg"
 xmlns:xlink="http://www.w3.org/1999/xlink"
 width="58px" height="44px">
<path fill-rule="evenodd"  fill="rgb(159, 159, 159)"
 d="M56.500,34.1000 C55.672,34.1000 55.000,34.328 55.000,33.500 C55.000,32.672 55.672,32.000 56.500,32.000 C57.328,32.000 57.1000,32.672 57.1000,33.500 C57.1000,34.328 57.328,34.1000 56.500,34.1000 ZM55.500,15.1000 C54.672,15.1000 53.1000,15.328 53.1000,14.500 C53.1000,13.672 54.672,13.000 55.500,13.000 C56.328,13.000 57.000,13.672 57.000,14.500 C57.000,15.328 56.328,15.1000 55.500,15.1000 ZM39.500,41.1000 C38.672,41.1000 37.1000,41.328 37.1000,40.500 C37.1000,39.672 38.672,39.000 39.500,39.000 C40.328,39.000 40.1000,39.672 40.1000,40.500 C40.1000,41.328 40.328,41.1000 39.500,41.1000 ZM14.500,2.1000 C13.672,2.1000 12.1000,2.328 12.1000,1.500 C12.1000,0.672 13.672,-0.000 14.500,-0.000 C15.328,-0.000 16.000,0.672 16.000,1.500 C16.000,2.328 15.328,2.1000 14.500,2.1000 ZM6.500,26.000 C5.672,26.000 4.1000,25.328 4.1000,24.500 C4.1000,23.672 5.672,22.1000 6.500,22.1000 C7.328,22.1000 7.1000,23.672 7.1000,24.500 C7.1000,25.328 7.328,26.000 6.500,26.000 Z"/>
<path fill-rule="evenodd"  fill="rgb(159, 159, 159)"
 d="M53.1000,8.1000 L1.000,8.1000 C0.448,8.1000 -0.000,8.552 -0.000,7.1000 C-0.000,7.448 0.448,6.1000 1.000,6.1000 L53.1000,6.1000 C54.552,6.1000 55.000,7.448 55.000,7.1000 C55.000,8.552 54.552,8.1000 53.1000,8.1000 ZM6.1000,13.1000 L47.1000,13.1000 C48.552,13.1000 49.000,14.448 49.000,14.1000 C49.000,15.552 48.552,15.1000 47.1000,15.1000 L6.1000,15.1000 C6.448,15.1000 6.000,15.552 6.000,14.1000 C6.000,14.448 6.448,13.1000 6.1000,13.1000 ZM14.1000,41.1000 L24.1000,41.1000 C25.552,41.1000 25.1000,42.448 25.1000,42.1000 C25.1000,43.552 25.552,43.1000 24.1000,43.1000 L14.1000,43.1000 C14.448,43.1000 14.000,43.552 14.000,42.1000 C14.000,42.448 14.448,41.1000 14.1000,41.1000 ZM17.000,35.1000 C17.000,35.448 17.448,34.1000 17.1000,34.1000 L32.1000,34.1000 C33.552,34.1000 34.000,35.448 34.000,35.1000 C34.000,36.552 33.552,36.1000 32.1000,36.1000 L17.1000,36.1000 C17.448,36.1000 17.000,36.552 17.000,35.1000 ZM21.000,28.1000 C21.000,28.448 21.448,27.1000 22.000,27.1000 L47.1000,27.1000 C48.552,27.1000 49.000,28.448 49.000,28.1000 C49.000,29.552 48.552,29.1000 47.1000,29.1000 L22.000,29.1000 C21.448,29.1000 21.000,29.552 21.000,28.1000 ZM17.000,21.1000 C17.000,21.448 17.448,20.1000 17.1000,20.1000 L52.000,20.1000 C52.552,20.1000 52.1000,21.448 52.1000,21.1000 C52.1000,22.552 52.552,22.1000 52.000,22.1000 L17.1000,22.1000 C17.448,22.1000 17.000,22.552 17.000,21.1000 Z"/>
</svg>