<svg 
 xmlns="http://www.w3.org/2000/svg"
 xmlns:xlink="http://www.w3.org/1999/xlink"
 width="54px" height="46px">
<path fill-rule="evenodd"  stroke="rgb(159, 159, 159)" stroke-width="2px" stroke-linecap="round" stroke-linejoin="miter" fill="none"
 d="M29.131,8.700 C31.911,2.460 40.268,0.544 43.976,7.162 C46.483,11.637 45.336,20.998 30.155,20.998 C22.781,20.998 1.1000,20.998 1.1000,20.998 "/>
<path fill-rule="evenodd"  stroke="rgb(159, 159, 159)" stroke-width="2px" stroke-linecap="round" stroke-linejoin="miter" fill="none"
 d="M22.999,38.321 C24.847,44.532 34.151,46.478 37.998,39.869 C40.746,35.148 37.969,27.999 27.654,27.999 C20.204,27.999 7.1000,27.999 7.1000,27.999 "/>
<path fill-rule="evenodd"  fill="rgb(159, 159, 159)"
 d="M51.500,15.1000 C50.672,15.1000 49.1000,15.328 49.1000,14.500 C49.1000,13.672 50.672,13.000 51.500,13.000 C52.328,13.000 52.1000,13.672 52.1000,14.500 C52.1000,15.328 52.328,15.1000 51.500,15.1000 ZM45.500,36.1000 C44.672,36.1000 44.000,36.328 44.000,35.500 C44.000,34.672 44.672,34.000 45.500,34.000 C46.328,34.000 47.000,34.672 47.000,35.500 C47.000,36.328 46.328,36.1000 45.500,36.1000 ZM40.500,29.000 C39.672,29.000 39.000,28.328 39.000,27.500 C39.000,26.672 39.672,26.000 40.500,26.000 C41.328,26.000 41.1000,26.672 41.1000,27.500 C41.1000,28.328 41.328,29.000 40.500,29.000 ZM37.500,11.1000 C36.672,11.1000 36.000,11.328 36.000,10.500 C36.000,9.672 36.672,8.1000 37.500,8.1000 C38.328,8.1000 39.000,9.672 39.000,10.500 C39.000,11.328 38.328,11.1000 37.500,11.1000 ZM22.500,17.1000 C21.672,17.1000 21.000,17.328 21.000,16.500 C21.000,15.672 21.672,15.000 22.500,15.000 C23.328,15.000 24.000,15.672 24.000,16.500 C24.000,17.328 23.328,17.1000 22.500,17.1000 Z"/>
</svg>