<svg 
 xmlns="http://www.w3.org/2000/svg"
 xmlns:xlink="http://www.w3.org/1999/xlink"
 width="55px" height="44px">
<path fill-rule="evenodd"  fill="rgb(159, 159, 159)"
 d="M53.1000,30.000 L0.1000,30.000 C0.448,30.000 -0.000,29.552 -0.000,28.1000 C-0.000,28.448 0.448,27.1000 0.1000,27.1000 L53.1000,27.1000 C54.552,27.1000 55.000,28.448 55.000,28.1000 C55.000,29.552 54.552,30.000 53.1000,30.000 ZM4.000,34.1000 L27.000,34.1000 C27.552,34.1000 28.000,35.448 28.000,35.1000 C28.000,36.552 27.552,37.000 27.000,37.000 L4.000,37.000 C3.448,37.000 2.1000,36.552 2.1000,35.1000 C2.1000,35.448 3.448,34.1000 4.000,34.1000 ZM9.000,41.1000 L45.1000,41.1000 C46.552,41.1000 46.1000,42.448 46.1000,42.1000 C46.1000,43.552 46.552,44.000 45.1000,44.000 L9.000,44.000 C8.448,44.000 7.1000,43.552 7.1000,42.1000 C7.1000,42.448 8.448,41.1000 9.000,41.1000 Z"/>
<path fill-rule="evenodd"  fill="rgb(159, 159, 159)"
 d="M53.953,23.924 C53.955,23.950 53.969,23.973 53.969,24.000 C53.969,24.552 53.521,25.000 52.969,25.000 C52.416,25.000 51.969,24.552 51.969,24.000 L51.949,24.000 C51.979,23.670 51.1000,23.338 51.1000,23.000 C51.1000,16.925 47.075,12.000 40.1000,12.000 C40.761,12.000 40.527,12.021 40.292,12.036 C38.409,6.214 32.949,2.000 26.500,2.000 C18.492,2.000 12.000,8.492 12.000,16.500 C12.000,17.109 12.050,17.705 12.122,18.294 C11.445,18.108 10.736,18.000 10.000,18.000 C6.274,18.000 3.152,20.551 2.262,24.000 L2.219,24.000 C2.219,24.552 1.771,25.000 1.219,25.000 C0.666,25.000 0.219,24.552 0.219,24.000 L0.201,24.000 C0.227,23.871 0.265,23.746 0.296,23.619 C0.297,23.616 0.297,23.613 0.298,23.610 C1.371,19.243 5.302,16.000 10.000,16.000 C10.009,16.000 10.017,16.001 10.025,16.001 C10.291,7.121 17.556,-0.000 26.500,-0.000 C33.318,-0.000 39.167,4.136 41.683,10.034 C48.543,10.392 53.1000,16.051 53.1000,23.000 C53.1000,23.312 53.977,23.618 53.953,23.924 Z"/>
<path fill-rule="evenodd"  fill="rgb(159, 159, 159)"
 d="M31.002,18.499 L30.961,18.479 C30.704,18.942 30.132,19.132 29.651,18.896 C29.156,18.651 28.953,18.051 29.197,17.556 C29.210,17.529 29.235,17.513 29.250,17.487 C31.326,13.069 35.796,10.000 40.1000,10.000 L40.1000,12.000 C36.536,12.000 32.725,14.677 31.002,18.499 Z"/>
</svg>