<svg 
 xmlns="http://www.w3.org/2000/svg"
 xmlns:xlink="http://www.w3.org/1999/xlink"
 width="49px" height="45px">
<path fill-rule="evenodd"  fill="rgb(159, 159, 159)"
 d="M47.500,38.833 L45.806,39.957 L47.531,41.101 C48.009,41.378 48.173,41.989 47.897,42.467 C47.621,42.945 47.009,43.109 46.531,42.833 L45.000,41.818 L45.000,44.000 C45.000,44.552 44.552,45.000 44.000,45.000 C43.448,45.000 42.1000,44.552 42.1000,44.000 L42.1000,41.818 L41.469,42.833 C40.991,43.109 40.379,42.945 40.103,42.467 C39.827,41.989 39.991,41.378 40.469,41.101 L42.194,39.957 L40.500,38.833 C40.022,38.557 39.858,37.945 40.134,37.467 C40.410,36.989 41.022,36.825 41.500,37.102 L42.1000,38.096 L42.1000,35.1000 C42.1000,35.448 43.448,34.1000 44.000,34.1000 C44.552,34.1000 45.000,35.448 45.000,35.1000 L45.000,38.096 L46.500,37.102 C46.978,36.825 47.590,36.989 47.866,37.467 C48.142,37.945 47.978,38.557 47.500,38.833 Z"/>
<path fill-rule="evenodd"  fill="rgb(159, 159, 159)"
 d="M37.846,17.322 L31.373,15.587 L24.734,19.420 C24.900,19.918 24.1000,20.446 24.1000,20.1000 C24.1000,21.553 24.900,22.080 24.735,22.577 L31.373,26.410 L37.846,24.675 C38.379,24.532 38.928,24.849 39.071,25.382 C39.214,25.916 38.897,26.464 38.364,26.607 L33.822,27.824 L37.820,30.133 C38.299,30.408 38.463,31.020 38.186,31.499 C37.910,31.977 37.299,32.141 36.821,31.865 L32.822,29.556 L34.039,34.098 C34.182,34.631 33.865,35.180 33.332,35.322 C32.798,35.465 32.250,35.149 32.107,34.616 L30.372,28.142 L23.733,24.308 C23.028,25.103 22.081,25.680 20.1000,25.899 L20.1000,33.553 L25.739,38.292 C26.129,38.683 26.129,39.316 25.739,39.706 C25.348,40.097 24.715,40.097 24.325,39.706 L20.1000,36.381 L20.1000,40.1000 C20.1000,41.552 20.552,41.1000 19.1000,41.1000 C19.448,41.1000 19.000,41.552 19.000,40.1000 L19.000,36.381 L15.675,39.706 C15.285,40.097 14.651,40.097 14.261,39.706 C13.871,39.316 13.871,38.683 14.261,38.292 L19.000,33.553 L19.000,25.899 C17.919,25.680 16.972,25.103 16.267,24.308 L9.627,28.142 L7.893,34.616 C7.750,35.149 7.202,35.465 6.668,35.322 C6.135,35.180 5.818,34.631 5.961,34.098 L7.178,29.556 L3.179,31.865 C2.701,32.141 2.090,31.977 1.813,31.499 C1.537,31.020 1.701,30.408 2.179,30.133 L6.178,27.824 L1.636,26.607 C1.103,26.464 0.786,25.916 0.929,25.382 C1.072,24.849 1.620,24.532 2.154,24.675 L8.627,26.410 L15.265,22.577 C15.100,22.080 14.1000,21.553 14.1000,20.1000 C14.1000,20.446 15.100,19.918 15.266,19.420 L8.627,15.587 L2.154,17.322 C1.620,17.465 1.072,17.148 0.929,16.615 C0.786,16.082 1.103,15.533 1.636,15.390 L6.178,14.173 L2.179,11.865 C1.701,11.589 1.537,10.977 1.813,10.499 C2.090,10.020 2.701,9.857 3.179,10.132 L7.178,12.441 L5.961,7.899 C5.818,7.366 6.135,6.817 6.668,6.674 C7.202,6.531 7.750,6.849 7.893,7.381 L9.627,13.855 L16.269,17.689 C16.974,16.896 17.920,16.320 19.000,16.101 L19.000,8.444 L14.261,3.705 C13.871,3.315 13.871,2.681 14.261,2.291 C14.651,1.900 15.285,1.900 15.675,2.291 L19.000,5.616 L19.000,0.1000 C19.000,0.448 19.448,-0.000 19.1000,-0.000 C20.552,-0.000 20.1000,0.448 20.1000,0.1000 L20.1000,5.616 L24.325,2.291 C24.715,1.900 25.348,1.900 25.739,2.291 C26.129,2.681 26.129,3.315 25.739,3.705 L20.1000,8.444 L20.1000,16.101 C22.080,16.320 23.026,16.896 23.731,17.689 L30.373,13.855 L32.107,7.381 C32.250,6.849 32.798,6.531 33.332,6.674 C33.865,6.817 34.182,7.366 34.039,7.899 L32.822,12.441 L36.821,10.132 C37.299,9.857 37.910,10.020 38.186,10.499 C38.463,10.977 38.299,11.589 37.820,11.865 L33.822,14.173 L38.364,15.390 C38.897,15.533 39.214,16.082 39.071,16.615 C38.928,17.148 38.379,17.465 37.846,17.322 ZM19.1000,18.000 C18.343,18.000 17.000,19.343 17.000,20.1000 C17.000,22.657 18.343,24.000 19.1000,24.000 C21.657,24.000 22.1000,22.657 22.1000,20.1000 C22.1000,19.343 21.657,18.000 19.1000,18.000 Z"/>
</svg>