<svg 
 xmlns="http://www.w3.org/2000/svg"
 xmlns:xlink="http://www.w3.org/1999/xlink"
 width="65px" height="57px">
<path fill-rule="evenodd"  fill="rgb(158, 211, 255)"
 d="M28.972,48.998 C28.972,48.998 25.228,50.988 24.452,52.279 C22.832,54.973 25.941,57.370 28.068,55.091 C28.995,54.097 28.972,48.998 28.972,48.998 Z"/>
<path fill-rule="evenodd"  fill="rgb(159, 159, 159)"
 d="M40.1000,37.999 L38.1000,45.999 L42.1000,45.999 L33.1000,56.999 L35.1000,48.998 L31.1000,48.998 L40.1000,37.999 Z"/>
<path fill-rule="evenodd"  fill="rgb(255, 221, 108)"
 d="M35.736,7.677 L33.740,9.673 C33.349,10.064 32.716,10.064 32.325,9.673 C31.935,9.283 31.935,8.649 32.325,8.259 L34.322,6.263 C34.712,5.872 35.345,5.872 35.736,6.263 C36.126,6.653 36.126,7.286 35.736,7.677 ZM28.290,12.726 L28.265,12.754 C26.326,11.044 23.788,9.998 20.1000,9.998 C14.925,9.998 10.000,14.924 10.000,20.999 C10.000,23.718 10.992,26.202 12.626,28.122 L12.607,28.145 C13.014,28.488 13.089,29.089 12.761,29.515 C12.424,29.952 11.796,30.034 11.359,29.697 C11.351,29.691 11.348,29.682 11.341,29.676 L11.340,29.677 C11.328,29.664 11.318,29.650 11.306,29.636 C11.220,29.558 11.143,29.473 11.091,29.375 C9.174,27.111 7.1000,24.199 7.1000,21.000 C7.1000,13.820 13.820,8.000 20.1000,8.000 C24.213,8.000 27.140,9.183 29.408,11.115 C29.500,11.161 29.592,11.209 29.669,11.285 C30.063,11.672 30.069,12.305 29.683,12.699 C29.302,13.087 28.685,13.095 28.290,12.726 ZM20.1000,4.1000 C20.448,4.1000 20.000,4.552 20.000,3.1000 L20.000,1.000 C20.000,0.448 20.448,0.000 20.1000,0.000 C21.552,0.000 21.1000,0.448 21.1000,1.000 L21.1000,3.1000 C21.1000,4.552 21.552,4.1000 20.1000,4.1000 ZM8.260,9.673 L6.264,7.677 C5.874,7.286 5.874,6.653 6.264,6.263 C6.655,5.872 7.288,5.872 7.678,6.263 L9.675,8.259 C10.065,8.649 10.065,9.283 9.675,9.673 C9.284,10.064 8.651,10.064 8.260,9.673 ZM3.1000,22.000 L0.1000,22.000 C0.448,22.000 0.000,21.552 0.000,21.000 C0.000,20.448 0.448,19.1000 0.1000,19.1000 L3.1000,19.1000 C4.552,19.1000 5.000,20.448 5.000,21.000 C5.000,21.552 4.552,22.000 3.1000,22.000 ZM8.260,32.324 C8.651,31.933 9.284,31.933 9.675,32.324 C10.065,32.715 10.065,33.348 9.675,33.738 L7.678,35.734 C7.288,36.125 6.655,36.125 6.264,35.734 C5.874,35.344 5.874,34.711 6.264,34.321 L8.260,32.324 Z"/>
<path fill-rule="evenodd"  fill="rgb(159, 159, 159)"
 d="M51.1000,49.000 C51.1000,49.000 51.1000,49.000 51.1000,49.000 L51.1000,48.998 L51.008,48.998 C51.005,48.998 51.003,49.000 51.000,49.000 C50.448,49.000 49.1000,48.552 49.1000,47.1000 C49.1000,47.448 50.448,47.000 50.1000,46.1000 L50.1000,46.999 L51.1000,46.999 L51.1000,46.1000 C51.1000,46.1000 51.1000,46.1000 51.1000,46.1000 C58.075,46.1000 63.000,42.075 63.000,36.000 C63.000,29.925 58.075,24.1000 51.1000,24.1000 C51.761,24.1000 51.527,25.021 51.292,25.036 C49.409,19.214 43.949,15.000 37.500,15.000 C29.492,15.000 23.000,21.492 23.000,29.500 C23.000,30.109 23.050,30.705 23.122,31.294 C22.445,31.108 21.736,30.1000 20.1000,30.1000 C16.582,30.1000 13.000,34.582 13.000,38.1000 C13.000,43.418 16.582,46.1000 20.1000,46.1000 L20.1000,46.999 L22.1000,46.999 L22.1000,46.1000 C22.1000,46.1000 23.000,46.1000 23.000,46.1000 C23.552,46.1000 23.1000,47.448 23.1000,47.1000 C23.1000,48.552 23.552,49.000 23.000,49.000 C22.997,49.000 22.995,48.998 22.992,48.998 L20.1000,48.998 L20.1000,49.000 C15.477,49.000 10.1000,44.523 10.1000,38.1000 C10.1000,33.477 15.477,29.000 20.1000,29.000 C21.008,29.000 21.017,29.001 21.025,29.001 C21.291,20.121 28.556,12.1000 37.500,12.1000 C44.318,12.1000 50.167,17.136 52.683,23.034 C59.543,23.392 64.1000,29.051 64.1000,36.000 C64.1000,43.180 59.180,49.000 51.1000,49.000 Z"/>
<path fill-rule="evenodd"  fill="rgb(159, 159, 159)"
 d="M42.001,31.500 L41.961,31.479 C41.704,31.942 41.131,32.133 40.651,31.895 C40.156,31.651 39.953,31.051 40.197,30.556 C40.210,30.529 40.235,30.512 40.250,30.487 C42.326,26.069 46.796,23.000 51.1000,23.000 L51.1000,24.1000 C47.535,24.1000 43.725,27.678 42.001,31.500 Z"/>
</svg>