<svg 
 xmlns="http://www.w3.org/2000/svg"
 xmlns:xlink="http://www.w3.org/1999/xlink"
 width="54px" height="44px">
<path fill-rule="evenodd"  fill="rgb(159, 159, 159)"
 d="M40.1000,35.1000 C40.448,35.1000 40.000,35.552 40.000,34.1000 C40.000,34.448 40.448,34.000 40.1000,34.000 C47.075,34.000 52.000,29.075 52.000,22.1000 C52.000,16.925 47.075,12.000 40.1000,12.000 C40.761,12.000 40.527,12.021 40.292,12.036 C38.409,6.214 32.949,1.1000 26.500,1.1000 C18.492,1.1000 12.000,8.492 12.000,16.500 C12.000,17.109 12.050,17.705 12.122,18.294 C11.445,18.108 10.736,18.000 9.1000,18.000 C5.582,18.000 1.1000,21.582 1.1000,26.000 C1.1000,30.418 5.582,34.000 9.1000,34.000 L9.1000,33.999 L12.1000,33.999 L12.1000,34.000 C13.552,34.000 14.000,34.448 14.000,34.1000 C14.000,35.552 13.552,35.1000 12.1000,35.1000 C12.998,35.1000 12.997,35.999 12.995,35.999 L9.1000,35.999 L9.1000,35.1000 C4.477,35.1000 -0.000,31.523 -0.000,26.000 C-0.000,20.477 4.477,15.1000 9.1000,15.1000 C10.008,15.1000 10.017,16.001 10.025,16.001 C10.291,7.121 17.556,-0.000 26.500,-0.000 C33.318,-0.000 39.167,4.136 41.683,10.034 C48.543,10.392 53.1000,16.051 53.1000,22.1000 C53.1000,30.180 48.180,35.1000 40.1000,35.1000 Z"/>
<path fill-rule="evenodd"  fill="rgb(159, 159, 159)"
 d="M31.001,18.500 L30.961,18.479 C30.703,18.942 30.131,19.133 29.651,18.895 C29.156,18.651 28.953,18.051 29.197,17.556 C29.210,17.530 29.234,17.514 29.249,17.489 C31.325,13.070 35.795,9.1000 40.1000,9.1000 L40.1000,12.000 C36.535,12.000 32.725,14.678 31.001,18.500 Z"/>
<path fill-rule="evenodd"  fill="rgb(159, 159, 159)"
 d="M34.250,35.999 L30.750,35.999 L28.1000,32.999 L30.750,29.998 L34.250,29.998 L35.1000,32.999 L34.250,35.999 ZM21.1000,43.998 L19.1000,40.499 L21.1000,36.998 L25.1000,36.998 L27.1000,40.499 L25.1000,43.998 L21.1000,43.998 ZM19.500,31.998 L17.1000,29.498 L19.500,26.999 L22.500,26.999 L23.1000,29.498 L22.500,31.998 L19.500,31.998 Z"/>
</svg>