<svg 
 xmlns="http://www.w3.org/2000/svg"
 xmlns:xlink="http://www.w3.org/1999/xlink"
 width="65px" height="57px">
<path fill-rule="evenodd"  fill="rgb(159, 159, 159)"
 d="M51.500,55.1000 C50.672,55.1000 49.1000,55.328 49.1000,54.500 C49.1000,53.672 50.672,53.000 51.500,53.000 C52.328,53.000 53.000,53.672 53.000,54.500 C53.000,55.328 52.328,55.1000 51.500,55.1000 ZM43.897,53.467 C43.621,53.945 43.009,54.109 42.531,53.833 L38.000,50.820 L38.000,55.1000 C38.000,56.552 37.552,56.1000 36.1000,56.1000 C36.448,56.1000 36.000,56.552 36.000,55.1000 L36.000,50.820 L31.469,53.833 C30.991,54.109 30.379,53.945 30.103,53.467 C29.827,52.989 29.991,52.378 30.469,52.101 L35.198,48.957 L30.500,45.833 C30.022,45.557 29.858,44.946 30.134,44.468 C30.410,43.989 31.022,43.825 31.500,44.101 L36.000,47.093 L36.000,42.000 C36.000,41.448 36.448,41.000 36.1000,41.000 C37.552,41.000 38.000,41.448 38.000,42.000 L38.000,47.093 L42.500,44.101 C42.978,43.825 43.590,43.989 43.866,44.468 C44.142,44.946 43.978,45.557 43.500,45.833 L38.802,48.957 L43.531,52.101 C44.009,52.378 44.173,52.989 43.897,53.467 Z"/>
<path fill-rule="evenodd"  fill="rgb(159, 159, 159)"
 d="M51.1000,48.1000 C51.1000,48.1000 51.1000,48.1000 51.1000,48.1000 L51.1000,48.999 L50.006,48.999 C50.004,48.999 50.002,48.1000 49.1000,48.1000 C49.448,48.1000 48.1000,48.552 48.1000,48.000 C48.1000,47.448 49.448,47.000 49.1000,47.000 L49.1000,46.998 L51.1000,46.998 L51.1000,47.000 C51.1000,47.000 51.1000,47.000 51.1000,47.000 C58.075,47.000 63.000,42.075 63.000,35.1000 C63.000,29.925 58.075,25.000 51.1000,25.000 C51.761,25.000 51.527,25.021 51.292,25.036 C49.409,19.214 43.949,14.1000 37.500,14.1000 C29.492,14.1000 23.000,21.492 23.000,29.500 C23.000,30.109 23.050,30.705 23.122,31.294 C22.445,31.108 21.736,30.1000 20.1000,30.1000 C16.582,30.1000 13.000,34.582 13.000,39.000 C13.000,43.418 16.582,46.1000 20.1000,47.000 L20.1000,46.998 L23.1000,46.998 L23.1000,47.000 C23.1000,47.000 23.1000,47.000 23.1000,47.000 C24.552,47.000 25.000,47.448 25.000,48.000 C25.000,48.552 24.552,48.1000 23.1000,48.1000 C23.998,48.1000 23.996,48.999 23.994,48.999 L20.1000,48.999 L20.1000,48.1000 C15.477,48.1000 10.1000,44.523 10.1000,39.000 C10.1000,33.477 15.477,28.1000 20.1000,28.1000 C21.008,28.1000 21.017,29.001 21.025,29.001 C21.291,20.121 28.556,13.000 37.500,13.000 C44.318,13.000 50.167,17.136 52.683,23.034 C59.543,23.392 64.1000,29.051 64.1000,35.1000 C64.1000,43.180 59.180,48.1000 51.1000,48.1000 Z"/>
<path fill-rule="evenodd"  fill="rgb(159, 159, 159)"
 d="M42.002,31.499 L41.961,31.479 C41.704,31.942 41.131,32.132 40.651,31.895 C40.156,31.651 39.953,31.051 40.197,30.556 C40.210,30.529 40.235,30.512 40.250,30.487 C42.326,26.069 46.796,22.1000 51.1000,22.1000 L51.1000,25.000 C47.535,25.000 43.725,27.678 42.002,31.499 Z"/>
<path fill-rule="evenodd"  fill="rgb(255, 221, 108)"
 d="M35.736,7.677 L33.740,9.673 C33.349,10.064 32.716,10.064 32.325,9.673 C31.935,9.283 31.935,8.650 32.325,8.259 L34.322,6.263 C34.712,5.873 35.345,5.873 35.736,6.263 C36.126,6.654 36.126,7.286 35.736,7.677 ZM28.290,12.727 L28.264,12.754 C26.326,11.044 23.788,9.999 20.1000,9.999 C14.925,9.999 10.000,14.924 10.000,20.999 C10.000,23.718 10.992,26.202 12.626,28.122 L12.607,28.145 C13.014,28.488 13.089,29.089 12.761,29.515 C12.424,29.953 11.796,30.034 11.359,29.697 C11.351,29.691 11.348,29.683 11.341,29.677 L11.340,29.678 C11.328,29.665 11.318,29.650 11.307,29.637 C11.220,29.559 11.143,29.473 11.091,29.375 C9.174,27.111 7.1000,24.199 7.1000,21.000 C7.1000,13.820 13.820,7.1000 20.1000,7.1000 C24.214,7.1000 27.141,9.183 29.409,11.116 C29.501,11.162 29.592,11.210 29.669,11.285 C30.063,11.672 30.069,12.305 29.683,12.699 C29.302,13.087 28.685,13.095 28.290,12.727 ZM20.1000,5.000 C20.448,5.000 20.000,4.552 20.000,4.000 L20.000,0.1000 C20.000,0.448 20.448,0.000 20.1000,0.000 C21.552,0.000 21.1000,0.448 21.1000,0.1000 L21.1000,4.000 C21.1000,4.552 21.552,5.000 20.1000,5.000 ZM8.260,9.673 L6.264,7.677 C5.874,7.286 5.874,6.654 6.264,6.263 C6.655,5.873 7.288,5.873 7.678,6.263 L9.675,8.259 C10.065,8.650 10.065,9.283 9.675,9.673 C9.284,10.064 8.651,10.064 8.260,9.673 ZM3.1000,21.1000 L0.1000,21.1000 C0.448,21.1000 0.000,21.552 0.000,21.000 C0.000,20.448 0.448,20.000 0.1000,20.000 L3.1000,20.000 C4.552,20.000 5.000,20.448 5.000,21.000 C5.000,21.552 4.552,21.1000 3.1000,21.1000 ZM8.260,32.324 C8.651,31.934 9.284,31.934 9.675,32.324 C10.065,32.715 10.065,33.348 9.675,33.738 L7.678,35.735 C7.288,36.125 6.655,36.125 6.264,35.735 C5.874,35.344 5.874,34.711 6.264,34.321 L8.260,32.324 Z"/>
</svg>